<svg xmlns="http://www.w3.org/2000/svg" xmlns:xlink="http://www.w3.org/1999/xlink" id="Layer_1" x="0" y="0" version="1.1" viewBox="0 0 512 512" xml:space="preserve" style="enable-background:new 0 0 512 512"><path style="fill:#ef4545" d="M50.312,439.369c-2.964,0-5.39,2.426-5.39,5.39v50.114c0,2.963,1.753,3.715,3.895,1.663	l18.696-17.879c2.142-2.049,5.648-2.049,7.79,0L94,496.536c2.142,2.051,3.895,1.3,3.895-1.663v-50.114c0-2.963-2.425-5.39-5.39-5.39	H50.312z"/><g style="opacity:.1"><path d="M67.369,444.759c0-2.963,2.425-5.39,5.39-5.39H50.312c-2.964,0-5.39,2.426-5.39,5.39v50.114 c0,2.963,1.753,3.715,3.895,1.664l18.551-17.741V444.759z"/></g><path style="fill:#ef4545" d="M92.504,46.759c2.964,0,5.39-2.424,5.39-5.39V19.696c0-2.963-2.425-5.39-5.39-5.39H50.312	c-2.964,0-5.39,2.426-5.39,5.39v21.673c0,2.965,2.425,5.39,5.39,5.39C50.312,46.759,92.504,46.759,92.504,46.759z"/><path style="opacity:.1;enable-background:new" d="M67.369,41.369V19.696c0-2.963,2.425-5.39,5.39-5.39H50.312	c-2.964,0-5.39,2.426-5.39,5.39v21.673c0,2.965,2.425,5.39,5.39,5.39h22.445C69.794,46.759,67.369,44.335,67.369,41.369z"/><g><path style="fill:#965930" d="M61.649,35.23h-45.48C7.276,35.23,0,42.506,0,51.4v382.782c0,8.892,7.276,16.168,16.169,16.168 h45.48V35.23z"/><path style="fill:#965930" d="M512,282.535c0,5.929-4.851,10.779-10.778,10.779h-65.078c-5.929,0-10.778-4.851-10.778-10.779 v-79.492c0-5.927,4.85-10.777,10.778-10.777h65.078c5.928,0,10.778,4.851,10.778,10.777V282.535z"/></g><path style="opacity:.1;enable-background:new" d="M459.318,282.535v-79.492c0-5.927,4.85-10.777,10.778-10.777h-33.954	c-5.929,0-10.778,4.851-10.778,10.777v79.492c0,5.929,4.85,10.779,10.778,10.779h33.954	C464.169,293.314,459.318,288.463,459.318,282.535z"/><path style="fill:#d2873c" d="M292.844,46.14c-2.964,0-5.389,2.424-5.389,5.39v382.52c0,2.963,2.424,5.388,5.389,5.388h142.499	c2.964,0,5.39-2.424,5.39-5.388V51.531c0-2.965-2.425-5.39-5.39-5.39H292.844V46.14z"/><path style="fill:#965930" d="M292.844,46.14c-2.964,0-5.389,2.424-5.389,5.39v382.52c0,2.963,2.424,5.388,5.389,5.388h26.753	c2.964,0,5.39-2.424,5.39-5.388V51.531c0-2.965-2.425-5.39-5.39-5.39h-26.753V46.14z"/><path style="fill:#fca181" d="M292.844,79.225c-2.964,0-5.389,2.426-5.389,5.39v50.453c0,2.963,2.424,5.39,5.389,5.39h36.975	c2.965,0,5.39-2.426,5.39-5.39V84.614c0-2.963-2.424-5.39-5.39-5.39H292.844z"/><path style="fill:#ff9b4b" d="M292.844,154.678c-2.964,0-5.389,2.424-5.389,5.39v50.453c0,2.963,2.424,5.387,5.389,5.387h36.975	c2.965,0,5.39-2.424,5.39-5.387v-50.453c0-2.965-2.424-5.39-5.39-5.39H292.844z"/><path style="fill:#a0c663" d="M292.844,230.13c-2.964,0-5.389,2.424-5.389,5.39v50.451c0,2.965,2.424,5.39,5.389,5.39h36.975	c2.965,0,5.39-2.424,5.39-5.39v-50.451c0-2.965-2.424-5.39-5.39-5.39H292.844z"/><path style="opacity:.1;enable-background:new" d="M317.113,135.067V84.614c0-2.963,2.425-5.39,5.39-5.39h-29.659	c-2.964,0-5.389,2.426-5.389,5.39v50.453c0,2.963,2.424,5.39,5.389,5.39h29.659C319.539,140.457,317.113,138.031,317.113,135.067z"/><path style="opacity:.1;enable-background:new" d="M317.113,210.52v-50.453c0-2.965,2.425-5.39,5.39-5.39h-29.659	c-2.964,0-5.389,2.424-5.389,5.39v50.453c0,2.963,2.424,5.387,5.389,5.387h29.659C319.539,215.908,317.113,213.484,317.113,210.52z"/><path style="opacity:.1;enable-background:new" d="M317.113,285.971v-50.451c0-2.965,2.425-5.39,5.39-5.39h-29.659	c-2.964,0-5.389,2.424-5.389,5.39v50.451c0,2.965,2.424,5.39,5.389,5.39h29.659C319.539,291.361,317.113,288.937,317.113,285.971z"/><path style="opacity:.1;enable-background:new" d="M22.636,434.182V51.4c0-8.894,7.276-16.17,16.169-16.17H16.169	C7.276,35.23,0,42.506,0,51.4v382.782c0,8.892,7.276,16.168,16.169,16.168h22.636C29.911,450.348,22.636,443.073,22.636,434.182z"/><g><path style="fill:#d2873c" d="M483.533,267.467c-4.329,0-7.837-3.508-7.837-7.837v-33.682c0-4.329,3.508-7.837,7.837-7.837 c4.329,0,7.837,3.508,7.837,7.837v33.681C491.37,263.958,487.861,267.467,483.533,267.467z"/><path style="fill:#d2873c" d="M293.033,35.23H44.922v415.118h248.111c2.964,0,5.39-2.424,5.39-5.39V40.62 C298.424,37.657,295.998,35.23,293.033,35.23z"/></g><path style="fill:#fbd33b" d="M361.932,413.957c0,1.711,0.345,3.967,0.87,6.092h46.771c0.526-2.124,0.87-4.381,0.87-6.092V89.096	h-48.511V413.957z"/><path style="opacity:.1;enable-background:new" d="M372.582,89.096h-10.651v324.861c0,1.711,0.345,3.967,0.87,6.092h10.651	c-0.526-2.124-0.87-4.381-0.87-6.092V89.096z"/><path style="fill:#965930" d="M251.92,384.684c0,5.929-4.85,10.779-10.778,10.779H101.014c-5.929,0-10.779-4.851-10.779-10.779	v-19.402c0-5.929,4.85-10.779,10.779-10.779H241.14c5.928,0,10.778,4.851,10.778,10.779v19.402H251.92z"/><path style="opacity:.1;enable-background:new" d="M123.419,384.684v-19.402c0-5.929,4.85-10.779,10.779-10.779h-33.184	c-5.929,0-10.779,4.851-10.779,10.779v19.402c0,5.929,4.85,10.779,10.779,10.779h33.184	C128.27,395.463,123.419,390.612,123.419,384.684z"/><path style="fill:#fca181" d="M410.443,19.696c0-2.963-2.424-5.39-5.39-5.39h-37.731c-2.964,0-5.39,2.426-5.39,5.39v49.657	c0,2.965,2.425,5.39,5.39,5.39h37.731c2.965,0,5.39-2.424,5.39-5.39L410.443,19.696L410.443,19.696z"/><path style="opacity:.1;enable-background:new" d="M384.27,69.353V19.696c0-2.963,2.425-5.39,5.39-5.39h-22.338	c-2.964,0-5.39,2.426-5.39,5.39v49.657c0,2.965,2.425,5.39,5.39,5.39h22.338C386.695,74.743,384.27,72.318,384.27,69.353z"/><path style="fill:#965930" d="M175.688,285.333c-2.027-0.006-3.813-1.336-4.399-3.278l-18.227-60.324L92.99,203.186	c-1.937-0.598-3.256-2.39-3.251-4.419c0.006-2.026,1.336-3.812,3.277-4.398l60.328-18.228l18.542-60.069	c0.597-1.935,2.383-3.251,4.405-3.251c0.004,0,0.009,0,0.014,0c2.027,0.006,3.813,1.336,4.399,3.276l18.227,60.326l60.071,18.543	c1.937,0.598,3.256,2.392,3.25,4.419c-0.006,2.028-1.335,3.814-3.277,4.4l-60.324,18.226l-18.544,60.071	c-0.597,1.933-2.382,3.251-4.404,3.251C175.697,285.333,175.693,285.333,175.688,285.333z"/><path style="fill:#fff" d="M220.255,199.078c0,24.268-19.815,43.941-44.259,43.941c-24.445,0-44.26-19.673-44.26-43.941	c0-24.272,19.813-43.941,44.26-43.941C200.441,155.137,220.255,174.806,220.255,199.078z"/><path style="fill:#965930" d="M203.255,198.977c-0.052,15.055-12.302,27.304-27.355,27.36	c-15.056,0.055-27.215-12.106-27.163-27.163c0.055-15.053,12.304-27.302,27.356-27.358	C191.15,171.763,203.312,183.925,203.255,198.977z"/><rect style="fill:#ffaa0e" width="15.673" height="330.951" x="378.347" y="89.098"/><rect style="fill:#d6d5d6" width="48.515" height="30.584" x="361.932" y="62.735"/><polygon style="opacity:.1;enable-background:new" points="361.932 62.734 361.932 93.316 384.27 93.275 384.27 62.693"/><path style="fill:#554141" d="M375.801,449.306l8.123,17.547c1.244,2.687,3.283,2.687,4.529,0l8.123-17.547H375.801z"/><path style="fill:#ededd3" d="M376.284,450.35h19.807l12.086-26.113c0.644-1.393,1.217-3.303,1.631-5.234h-47.243	c0.413,1.931,0.984,3.841,1.63,5.234L376.284,450.35z"/></svg>