<?xml version="1.0" encoding="UTF-8" standalone="no"?> <svg id="Layer_1" data-name="Layer 1" xmlns="http://www.w3.org/2000/svg" viewBox="0 0 128 128"><defs><style>.cls-1{fill:#2e79bd;}.cls-2{fill:#2d3e50;}</style></defs><title>b</title><path class="cls-1" d="M103.51789,20.74327H84.15429a1.93628,1.93628,0,0,0,0,3.87257h19.36359a1.93628,1.93628,0,0,0,0-3.87257Z"/><path class="cls-1" d="M76.40891,20.74327H49.29972a1.93628,1.93628,0,1,0,0,3.87257H76.40891a1.93628,1.93628,0,0,0,0-3.87257Z"/><path class="cls-1" d="M105.45417,39.24865a1.93575,1.93575,0,0,0-1.93628-1.93628H84.15429a1.93629,1.93629,0,0,0,0,3.87259h19.36359A1.93576,1.93576,0,0,0,105.45417,39.24865Z"/><path class="cls-1" d="M78.3452,39.24867a1.93576,1.93576,0,0,0-1.93628-1.9363H49.29972a1.93629,1.93629,0,1,0,0,3.87259H76.40891A1.93575,1.93575,0,0,0,78.3452,39.24867Z"/><path class="cls-1" d="M72.5361,53.88148H49.29972a1.93628,1.93628,0,1,0,0,3.87257H72.5361a1.93628,1.93628,0,0,0,0-3.87257Z"/><path class="cls-1" d="M80.28172,53.88146a1.93629,1.93629,0,0,0,0,3.87259H89.7435a1.93629,1.93629,0,0,0,0-3.87259Z"/><path class="cls-2" d="M97.85361,112.25534a6.6971,6.6971,0,0,1-6.65256-2.81962l-.45994-.67459-6.12981,12.80132,5.9093-.2336L94.044,126.0788l6.84821-14.298-.07885-.0336Z"/><path class="cls-2" d="M112.9153,109.66645l-2.2151,2.02964a6.69547,6.69547,0,0,1-4.52068,1.75075c-.06132,0-.12121-.00147-.18252-.0029l6.05094,12.63486,3.52194-4.74994,5.90932.2336-5.91369-12.35013Z"/><path class="cls-1" d="M123.25346,93.25928l-1.189-3.67374.98593-3.73333a3.76193,3.76193,0,0,0-1.25249-3.87l-2.98638-2.44771-1.189-3.67372a3.76186,3.76186,0,0,0-3.14595-2.57852l-3.83566-.44459-2.98638-2.44773a3.76187,3.76187,0,0,0-4.0406-.46836l-3.46713,1.6997-3.83564-.44461a3.7619,3.7619,0,0,0-3.65238,1.79049L90.66106,76.2715l-3.46713,1.6997a3.76187,3.76187,0,0,0-2.10456,3.4809l.1058,3.85986-1.99781,3.30433a3.76194,3.76194,0,0,0,.11144,4.06615l2.17581,3.18993.1058,3.85988a3.76191,3.76191,0,0,0,2.29207,3.36038l3.555,1.50723,2.17581,3.18995a3.762,3.762,0,0,0,3.745,1.58775l3.80555-.654,3.555,1.50719a3.76187,3.76187,0,0,0,4.00887-.689l2.84784-2.60767,3.80551-.654a3.76189,3.76189,0,0,0,3-2.747l.986-3.73335,2.84782-2.60765A3.76182,3.76182,0,0,0,123.25346,93.25928Z"/><path class="cls-2" d="M36.563,108.10164V17.92253a15.935,15.935,0,0,0-2.82532-9.07005h73.69921a9.07857,9.07857,0,0,1,9.06675,9.07005V68.49109a8.90417,8.90417,0,0,1,5.9873,5.79586l.72614,2.24441.21783.17823V17.92253a16.01746,16.01746,0,0,0-15.998-16.00132H20.56164a16.01746,16.01746,0,0,0-15.998,16.00132V30.17437A3.46942,3.46942,0,0,0,8.02925,33.64H29.63169v77.92728a3.46945,3.46945,0,0,0,3.46563,3.46563H82.06511l3.32041-6.93127ZM29.63169,26.70873H11.49489V17.92253a9.0684,9.0684,0,1,1,18.1368,0Z"/><path class="cls-1" d="M62.69068,91.55678a2.955,2.955,0,0,0,2.62469,1.20872l.28751-.00161c.66463-.00322,1.33056-.02836,1.971-.0577l.04158-.00193c.43127-.02.86254-.04029,1.29252-.05028l.46576-.01c.9847-.02256,1.9694-.0448,2.95411-.06027a1.73537,1.73537,0,0,0-.04158-3.47047h-.01289c-.91411.01418-1.82823.03481-2.74234.05544l-.70073.01579c-.43417.01-.86834.02965-1.30219.04932l-.07446.00355c-.69848.03255-1.26512.04964-1.83338.05608A10.875,10.875,0,0,0,65.286,85.6721l-.04609-.14086a4.32066,4.32066,0,0,0-5.00377-2.98537,5.00369,5.00369,0,0,0-.54118.14215,7.26175,7.26175,0,1,0-13.89606,2.95862l1.87174,4.35106a1.73557,1.73557,0,0,0,3.18844-1.37214l-1.87174-4.35074a3.7851,3.7851,0,0,1,1.26126-4.68048A3.85783,3.85783,0,0,1,56.182,83.43678l-.85223,5.193-.02675.11571c-.02353.10153-.04674.20306-.07317.303a1.73514,1.73514,0,0,0,3.34251.93216,1.66315,1.66315,0,0,0,.11636-.3884l.04545-.27752.0332-.13731c.01612-.06575.03223-.13119.04738-.19791a8.54,8.54,0,0,1,.54473-1.81372,2.39081,2.39081,0,0,1,1.56843-1.219c.69912-.14279.98116.56955,1.02822.70782l.01612.04867a8.09028,8.09028,0,0,1,.17728,2.53444A3.813,3.813,0,0,0,62.69068,91.55678Z"/></svg>