<?xml version="1.0" encoding="utf-8"?>
<!-- Generator: Adobe Illustrator 23.0.5, SVG Export Plug-In . SVG Version: 6.00 Build 0)  -->
<svg version="1.1" id="Capa_1" xmlns="http://www.w3.org/2000/svg" xmlns:xlink="http://www.w3.org/1999/xlink" x="0px" y="0px"
	 viewBox="0 0 1000 117.6" style="enable-background:new 0 0 1000 117.6;" xml:space="preserve">
<style type="text/css">
	.st0{fill:url(#SVGID_1_);}
	.st1{fill:url(#SVGID_2_);}
	.st2{fill:url(#SVGID_3_);}
	.st3{fill:#425E9C;}
</style>
<g>
	<g>
		<linearGradient id="SVGID_1_" gradientUnits="userSpaceOnUse" x1="0" y1="74.0834" x2="39.3755" y2="74.0834">
			<stop  offset="0" style="stop-color:#F6C43D"/>
			<stop  offset="1" style="stop-color:#FCD975"/>
		</linearGradient>
		<path class="st0" d="M30.3,32.7H9c-5,0-9,4.1-9,9v64.7c0,5,4.1,9,9,9h21.3c5,0,9-4.1,9-9V41.7C39.4,36.7,35.3,32.7,30.3,32.7z"/>
		<linearGradient id="SVGID_2_" gradientUnits="userSpaceOnUse" x1="54.2526" y1="57.7461" x2="93.6282" y2="57.7461">
			<stop  offset="0" style="stop-color:#1480C4"/>
			<stop  offset="1" style="stop-color:#1C99D4"/>
		</linearGradient>
		<path class="st1" d="M84.6,0H63.3c-5,0-9,4.1-9,9v97.4c0,5,4.1,9,9,9h21.3c5,0,9-4.1,9-9V9C93.6,4.1,89.6,0,84.6,0z"/>
		<linearGradient id="SVGID_3_" gradientUnits="userSpaceOnUse" x1="108.3683" y1="80.2827" x2="147.7438" y2="80.2827">
			<stop  offset="0" style="stop-color:#B11E26"/>
			<stop  offset="1" style="stop-color:#C21C24"/>
		</linearGradient>
		<path class="st2" d="M138.7,45.1h-21.3c-5,0-9,4.1-9,9v52.3c0,5,4.1,9,9,9h21.3c5,0,9-4.1,9-9V54.1
			C147.7,49.1,143.7,45.1,138.7,45.1z"/>
	</g>
	<g>
		<g>
			<g>
				<path d="M275.7,86.8l11,16.5l-1.5,1c-1.1-1-2-1.5-2.7-1.5c-0.7,0-2.6,0.9-5.8,2.8c-6.6,3.8-12.2,6.4-16.7,7.7
					c-4.5,1.3-9.9,2-16.2,2c-12.5,0-22.7-2.9-30.7-8.9c-4.7-3.4-8.4-7.7-11.1-12.8c-3.1-5.8-4.7-12.2-4.7-19.3
					c0-9.6,2.8-17.9,8.4-24.9c8.4-10.6,21.1-15.9,38.1-15.9c6.2,0,11.6,0.7,16.1,2c4.5,1.3,10.1,3.9,16.8,7.8
					c3.2,1.8,5.1,2.7,5.8,2.7c0.7,0,1.6-0.5,2.7-1.5l1.5,1l-11,16.5l-1.6-1c0.1-0.6,0.1-1.1,0.1-1.6c0-1.1-0.5-2.2-1.4-3.1
					c-1-1-2.7-2.2-5.1-3.5c-6.8-3.8-14.1-5.8-21.7-5.8c-9,0-16.2,2.3-21.6,6.8c-6.3,5.3-9.5,12.2-9.5,20.7c0,8.5,3.2,15.4,9.5,20.7
					c5.4,4.5,12.6,6.8,21.6,6.8c7.6,0,14.9-1.9,21.7-5.8c2.5-1.4,4.2-2.6,5.1-3.6c1-1,1.4-2,1.4-3.2c0-0.4,0-0.9-0.1-1.5L275.7,86.8
					z"/>
				<path d="M333.6,47.7c10.3,0,18.9,2.6,25.8,7.9c8.2,6.3,12.3,15.1,12.3,26.4c0,10.6-4.1,19.1-12.3,25.4
					c-6.8,5.2-15.3,7.9-25.6,7.9c-10.3,0-18.9-2.6-25.6-7.9c-8.3-6.3-12.4-15-12.4-25.9c0-11.1,4.1-19.7,12.4-25.9
					C314.9,50.5,323.4,47.8,333.6,47.7z M333.7,60c-6.7,0-12.1,2.1-16.3,6.4c-3.9,4-5.8,9-5.8,15.1c0,6,1.9,11,5.8,15
					c4.2,4.3,9.7,6.5,16.4,6.5c6.7,0,12.1-2.2,16.3-6.5c3.9-4,5.9-8.9,5.9-14.8c0-6.4-2-11.5-5.9-15.4
					C345.8,62.2,340.3,60.1,333.7,60z"/>
				<path d="M385.3,108V55c0-1.2-0.3-2.1-0.8-2.7c-0.5-0.6-1.5-1.1-2.9-1.6v-1.6h38c7.9,0,14.1,1,18.7,3c6.4,2.8,11,7.4,13.8,13.8
					c2,4.5,3,9.7,3,15.7c0,11.1-3.3,19.5-9.9,25.2c-3,2.5-6.5,4.4-10.5,5.5c-4,1.1-9.1,1.7-15.1,1.7h-38v-1.6
					c1.3-0.3,2.3-0.8,2.9-1.5C385,110.1,385.3,109.2,385.3,108z M400.8,102.2h16.5c7.6,0,13.1-1.7,16.5-5.2
					c3.6-3.6,5.4-8.8,5.4-15.4c0-6.7-1.8-11.8-5.4-15.4c-1.8-1.8-4-3.1-6.6-4c-2.6-0.8-5.9-1.2-10-1.2h-16.5V102.2z"/>
				<path d="M484.2,86.4v15.8h41.1c1.2,0,2.1-0.3,2.7-0.8c0.6-0.5,1.1-1.5,1.5-2.9h1.6v19.1h-1.6c-0.3-1.3-0.8-2.3-1.5-2.9
					c-0.7-0.6-1.6-0.8-2.8-0.8H465v-1.6c1.3-0.3,2.3-0.8,2.9-1.5c0.6-0.7,0.8-1.6,0.8-2.8V55c0-1.2-0.3-2.1-0.8-2.7
					c-0.5-0.6-1.5-1.1-2.9-1.6v-1.6h58.5c1.2,0,2.2-0.3,2.8-0.8c0.6-0.5,1.1-1.5,1.5-2.9h1.6v19.1h-1.6c-0.4-1.4-0.9-2.4-1.5-2.9
					c-0.6-0.5-1.6-0.8-2.8-0.8h-39.3v14.2h24.4c1.2,0,2.1-0.3,2.7-0.8c0.6-0.5,1.2-1.5,1.6-2.9h1.6v18.7h-1.6
					c-0.4-1.4-0.9-2.3-1.5-2.9c-0.6-0.6-1.6-0.8-2.8-0.8H484.2z"/>
			</g>
		</g>
		<g>
			<g>
				<path class="st3" d="M561,86.4V108c0,1.2,0.3,2.1,0.8,2.7s1.5,1.2,2.9,1.6v1.6h-22.9v-1.6c1.4-0.3,2.3-0.8,2.9-1.5
					c0.6-0.7,0.8-1.6,0.8-2.8V55c0-1.2-0.3-2.1-0.8-2.7c-0.5-0.6-1.5-1.1-2.9-1.6v-1.6h58.1c1.2,0,2.2-0.3,2.8-0.8
					c0.6-0.5,1.1-1.5,1.5-2.9h1.6v19.2h-1.6c-0.4-1.4-0.9-2.3-1.5-2.9s-1.6-0.8-2.8-0.8H561v14.2h24.4c1.2,0,2.2-0.3,2.8-0.8
					c0.6-0.5,1.1-1.5,1.6-2.9h1.6v18.7h-1.6c-0.4-1.4-0.9-2.3-1.5-2.9c-0.6-0.6-1.6-0.8-2.8-0.8H561z"/>
				<path class="st3" d="M649.6,47.7c10.3,0,18.9,2.6,25.8,7.9c8.2,6.3,12.3,15.2,12.3,26.5c0,10.6-4.1,19.1-12.3,25.4
					c-6.8,5.3-15.4,7.9-25.7,7.9c-10.3,0-18.9-2.6-25.7-7.9c-8.3-6.3-12.4-15-12.4-25.9c0-11.1,4.1-19.7,12.4-25.9
					C630.9,50.5,639.4,47.8,649.6,47.7z M649.7,60c-6.7,0-12.1,2.1-16.4,6.4c-3.9,4-5.9,9.1-5.9,15.1c0,6,2,11,5.9,15.1
					c4.2,4.3,9.7,6.5,16.4,6.5c6.7,0,12.1-2.2,16.4-6.5c3.9-4,5.9-8.9,5.9-14.8c0-6.4-2-11.5-5.9-15.4
					C661.9,62.2,656.4,60.1,649.7,60z"/>
				<path class="st3" d="M716.9,87.3V108c0,1.2,0.3,2.1,0.8,2.7c0.5,0.6,1.5,1.2,2.9,1.6v1.6h-22.9v-1.6c1.4-0.3,2.3-0.8,2.9-1.5
					c0.6-0.7,0.8-1.6,0.8-2.8V55c0-1.2-0.3-2.1-0.8-2.7c-0.5-0.6-1.5-1.1-2.9-1.6v-1.6h42.5c5.5,0,9.7,0.3,12.6,0.8
					c2.9,0.6,5.5,1.6,7.8,3c4.7,3.1,7,8,7,14.9c0,5.3-1.4,9.4-4.3,12.3s-7.5,5.1-13.9,6.4l12.3,17.1c2.2,3.2,4,5.3,5.4,6.4
					c1.3,1.1,2.8,1.9,4.5,2.2v1.6h-27.3v-1.6c2-0.5,3-1.4,3-2.6c0-0.8-0.6-2.1-1.9-3.9l-13-18.5H716.9z M716.9,75.6h23.4
					c3.6,0,6.2-0.4,7.9-1.2c2.4-1,3.6-3.1,3.6-6.2c0-2.7-0.8-4.7-2.5-5.7c-1.7-1.1-4.7-1.6-8.9-1.6h-23.4V75.6z"/>
				<path class="st3" d="M841.1,90.7l9.8,14.3l-1.3,1c-0.9-0.7-1.7-1-2.2-1c-0.7,0-2.2,0.7-4.6,2.1c-5.3,3.1-10,5.2-14,6.4
					c-4.1,1.2-8.7,1.8-14,1.8c-10.6,0-19.2-2.5-25.9-7.6c-3.8-2.9-6.8-6.5-9-10.9c-2.4-4.7-3.6-9.8-3.6-15.3
					c0-7.6,2.2-14.3,6.6-20.2c6.9-9.1,17.5-13.7,31.8-13.7c5.3,0,10,0.6,14.1,1.8c4.1,1.2,8.8,3.3,14,6.4c2.4,1.4,3.9,2.1,4.6,2.1
					c0.5,0,1.3-0.3,2.2-1l1.3,1l-9.8,14.2l-1.3-0.9c0-0.5,0.1-0.7,0.1-0.9c0-0.3,0.1-0.6,0.1-0.7c0-1.9-2.6-4-7.8-6.4
					c-4.9-2.3-9.9-3.4-14.9-3.4c-7,0-12.8,1.8-17.4,5.5c-5.2,4.2-7.8,9.5-7.8,16c0,6.5,2.6,11.9,7.8,16.1c4.6,3.7,10.4,5.5,17.4,5.5
					c5.5,0,10.9-1.4,16.4-4.1c4.2-2.2,6.4-4.1,6.4-5.7c0-0.1-0.1-0.6-0.2-1.6L841.1,90.7z"/>
				<path class="st3" d="M879.6,86.4v15.8h41.2c1.2,0,2.1-0.3,2.7-0.8c0.6-0.5,1.1-1.5,1.5-2.9h1.6v19.2H925
					c-0.3-1.4-0.8-2.3-1.5-2.9c-0.7-0.6-1.6-0.8-2.8-0.8h-60.4v-1.6c1.4-0.3,2.3-0.8,2.9-1.5c0.6-0.7,0.8-1.6,0.8-2.8V55
					c0-1.2-0.3-2.1-0.8-2.7c-0.5-0.6-1.5-1.1-2.9-1.6v-1.6h58.6c1.2,0,2.2-0.3,2.8-0.8c0.6-0.5,1.1-1.5,1.5-2.9h1.6v19.2h-1.6
					c-0.4-1.4-0.9-2.4-1.5-2.9c-0.6-0.5-1.6-0.8-2.8-0.8h-39.4v14.2H904c1.2,0,2.1-0.3,2.7-0.8c0.6-0.5,1.2-1.5,1.6-2.9h1.6v18.7
					h-1.6c-0.4-1.4-0.9-2.3-1.5-2.9c-0.6-0.6-1.6-0.8-2.8-0.8H879.6z"/>
				<path class="st3" d="M998.8,55L991,70.1l-1.4-0.8c0-1.3-0.4-2.3-1.2-3c-2.2-2-5.4-3.6-9.7-4.9c-4.3-1.3-8.6-1.9-13-1.9
					c-3.7,0-7.1,0.5-10,1.6c-4.2,1.5-6.3,3.7-6.3,6.5c0,1.9,1,3.2,3,4c2,0.8,5.9,1.4,11.6,1.9l9.1,0.7c8,0.6,14.1,2.2,18.2,4.6
					c2.3,1.4,4.2,3.2,5.7,5.6c1.9,2.9,2.8,6.2,2.8,9.8c0,6.6-3,11.8-8.9,15.6c-5.7,3.7-13.4,5.5-23,5.5c-9.8,0-19.2-2.1-28.3-6.2
					c-0.6-0.3-1.1-0.4-1.6-0.4c-0.8,0-1.5,0.5-2.1,1.4l-1.4-0.6l6.7-15.9l1.4,0.6c0,0.2,0,0.4,0,0.5c0,1,0.4,1.9,1.2,2.5
					c1.9,1.7,5.3,3.2,10,4.4c4.7,1.3,9.4,1.9,14.1,1.9c4.1,0,7.8-0.5,11-1.6c4-1.3,6-3.4,6-6.4c0-2.4-1.4-4-4.2-4.9
					c-1.9-0.6-5.2-1.1-10-1.6l-9.1-0.8c-4.9-0.4-8.6-0.9-11.2-1.5c-2.6-0.6-4.8-1.5-6.8-2.7c-2.5-1.5-4.4-3.6-5.8-6.3
					c-1.4-2.7-2.1-5.6-2.1-8.7c0-7.1,3-12.5,9.1-16.3c5.6-3.4,12.4-5.1,20.6-5.1c4.4,0,8.6,0.5,12.4,1.5c3.8,1,8.4,2.7,13.8,5.2
					c1.6,0.7,2.7,1.1,3.3,1.1c0.6,0,1.4-0.4,2.4-1.3L998.8,55z"/>
			</g>
		</g>
	</g>
</g>
</svg>
