<?xml version="1.0" encoding="UTF-8" standalone="no"?> <svg id="Layer_1" data-name="Layer 1" xmlns="http://www.w3.org/2000/svg" viewBox="0 0 128 128"><defs><style>.cls-1{fill:#2d3e50;}.cls-2{fill:#2e79bd;}</style></defs><title>n</title><path class="cls-1" d="M123.447,47.55151l-7.27227-8.6733-2.40853-11.05937a8.01324,8.01324,0,0,0-4.78511-5.707L98.5112,17.81163l-7.27227-8.6733a8.01288,8.01288,0,0,0-6.8892-2.82955l-11.26906,1.058L62.61071,3.06646a8.01291,8.01291,0,0,0-7.415.69611L45.7091,9.93635,34.44,10.9943a8.01313,8.01313,0,0,0-6.24217,4.06231L22.667,24.93189,13.18028,31.1056A8.01309,8.01309,0,0,0,9.541,37.60354L9.23285,48.918,3.70194,58.7932A8.013,8.013,0,0,0,3.49928,66.238L8.48452,76.39972,8.1764,87.71417a8.013,8.013,0,0,0,3.28027,6.68627l9.13657,6.68088L25.57856,111.243a8.01275,8.01275,0,0,0,6.0118,4.396l11.19479,1.66969,9.13664,6.68088a8.01254,8.01254,0,0,0,7.36606,1.09863l10.68851-3.724,11.19479,1.66962a8.013,8.013,0,0,0,7.033-2.45037l7.73343-8.2647,10.68851-3.72409a8.01284,8.01284,0,0,0,5.08852-5.43808l3.00689-10.91193,7.7335-8.2647a8.013,8.013,0,0,0,1.97856-7.18L122.025,65.74049l3.00689-10.91193A8.01316,8.01316,0,0,0,123.447,47.55151ZM64,104.4065A40.40649,40.40649,0,1,1,104.40648,64,40.40651,40.40651,0,0,1,64,104.4065Z"/><path class="cls-2" d="M86.12835,56.35634a8.56874,8.56874,0,0,0-1.659-.25249c-3.76914-.30669-7.52019-.63126-11.2892-.82962a1.52678,1.52678,0,0,1-1.56894-1.19017c-1.49679-3.82313-3.02962-7.64634-4.56259-11.46961a2.85242,2.85242,0,0,0-2.83133-1.98368,3.024,3.024,0,0,0-2.93952,1.85754,9.30656,9.30656,0,0,0-.41474.97379Q58.672,48.791,56.48083,54.12c-.21638.52307-.41474.88375-1.082.91973-4.29207.25256-8.58408.559-12.87616.82962a3.0665,3.0665,0,0,0-2.84935,2.8673c-.10819,1.62307.86553,2.54286,1.94764,3.42648,2.9215,2.45256,5.8249,4.9232,8.74633,7.37589a1.16517,1.16517,0,0,1,.43283,1.37044c-1.082,4.11173-2.11,8.24149-3.1559,12.37124a3.02762,3.02762,0,0,0,2.20013,3.751,3.87626,3.87626,0,0,0,3.02969-.63113c3.26409-2.07392,6.60033-4.07569,9.86456-6.16757a1.5741,1.5741,0,0,1,1.98368-.018c3.3903,2.20006,6.83473,4.34607,10.27923,6.51016a3.15109,3.15109,0,0,0,4.90518-3.51658c-.91979-3.78709-1.82143-7.57425-2.81331-11.36128a1.99547,1.99547,0,0,1,.7574-2.34436c3.11993-2.47064,6.14961-5.04948,9.23343-7.59227a2.76856,2.76856,0,0,0,1.24423-2.38047A3.06548,3.06548,0,0,0,86.12835,56.35634Z"/></svg>