<svg xmlns="http://www.w3.org/2000/svg" width="48" height="48" viewBox="0 0 48 48"><path fill="#fd745c" d="M38.418,23.788l4.182-5.797l-6.942-2.158l-0.133-7.49l-7.173,2.623L23.994,5l-4.358,5.712	l-7.428-2.369l0.179,7.32l-7.208,2.369l4.315,5.756L5,29.57l7.387,2.342v6.983l7.249-2.032L24.045,43l4.307-6.18l7.173,2.075V31.87	L43,29.57L38.418,23.788z"/><polygon fill="#ff4527" points="16.924 21.593 16.538 13.732 24.045 16.526 24.045 23.789"/><polygon fill="#ec2101" points="28.352 29.57 28.352 36.82 35.525 38.895 35.525 31.87"/><polygon fill="#ff9281" points="24.045 35.975 19.636 29.571 24.045 23.789 28.352 29.571"/><polygon fill="#ff9281" points="19.636 10.712 23.994 5 28.352 10.966 24.045 16.525"/><polygon fill="#ff8b79" points="31.256 21.593 35.658 15.833 42.6 17.991 38.418 23.788"/><polygon fill="#fd684d" points="24.045 23.788 31.256 21.593 36.192 27.586 28.352 29.57"/><polygon fill="#ff3413" points="16.924 21.593 12.387 15.663 5.179 18.032 9.494 23.788"/><polygon fill="#ef5240" points="24.045 16.525 31.449 13.632 35.525 8.343 28.352 10.966"/><polygon fill="#e63320" points="24.045 23.788 24.045 16.525 31.449 13.631 31.256 21.592"/><polygon fill="#d21c22" points="19.636 29.57 19.636 36.863 12.387 38.895 12.387 31.912"/><polygon fill="#ec2101" points="9.494 23.788 16.924 21.593 11.774 27.211 5 29.57"/><polygon fill="#dc1d23" points="16.924 21.593 12.387 15.663 12.208 8.343 16.538 13.731"/><polygon fill="#b4151b" points="19.636 29.57 19.636 36.863 24.045 43 24.045 35.975"/><polygon fill="#c90901" points="28.352 29.57 36.191 27.586 43 29.57 35.525 31.87"/><polygon fill="#fd694f" points="31.256 21.593 35.658 15.833 35.525 8.343 31.449 13.632"/><polygon fill="#fd694f" points="16.538 13.731 24.045 16.525 19.636 10.712 12.208 8.343"/><polygon fill="#d21c22" points="28.352 29.57 28.352 36.82 24.045 43 24.045 35.975"/><polygon fill="#ff482c" points="31.256 21.593 36.191 27.586 43 29.57 38.418 23.788"/><path fill="#b6171e" d="M12.387,31.912l7.249-2.342l-7.862-2.359L5,29.57L12.387,31.912z"/><path fill="#fd745c" d="M24.045,23.788l-4.409,5.782l-7.861-2.359l5.15-5.618L24.045,23.788z"/></svg>